<svg width="16" height="20" viewBox="0 0 16 20" fill="none" xmlns="http://www.w3.org/2000/svg">
<path fill-rule="evenodd" clip-rule="evenodd" d="M8.00004 15.7143L15.1429 20V2.85714C15.1429 2.09938 14.8419 1.37266 14.3061 0.836838C13.7702 0.30102 13.0435 0 12.2857 0H3.71432C2.95656 0 2.22983 0.30102 1.69402 0.836838C1.1582 1.37266 0.857178 2.09938 0.857178 2.85714V20L8.00004 15.7143ZM2.28575 17.4771L8.00004 14.0486L13.7143 17.4771V2.85714C13.7143 2.47826 13.5638 2.1149 13.2959 1.84699C13.028 1.57908 12.6646 1.42857 12.2857 1.42857H3.71432C3.33544 1.42857 2.97208 1.57908 2.70417 1.84699C2.43626 2.1149 2.28575 2.47826 2.28575 2.85714V17.4771Z" fill="white"/>
</svg>
