<svg width="21" height="20" viewBox="0 0 21 20" fill="none" xmlns="http://www.w3.org/2000/svg">
<path d="M10.8713 0C9.55988 0 8.26135 0.258646 7.0498 0.761171C5.83825 1.2637 4.73741 2.00026 3.81013 2.9288C1.93741 4.80408 0.885324 7.34751 0.885324 9.99956C0.876595 12.3086 1.675 14.5479 3.14214 16.3293L1.14496 18.3292C1.0064 18.4698 0.912532 18.6484 0.875211 18.8424C0.837889 19.0363 0.858782 19.237 0.935254 19.4191C1.01819 19.5991 1.15265 19.7502 1.32156 19.8535C1.49046 19.9568 1.6862 20.0075 1.88392 19.9991H10.8713C13.5197 19.9991 16.0596 18.9456 17.9324 17.0703C19.8051 15.195 20.8572 12.6516 20.8572 9.99956C20.8572 7.34751 19.8051 4.80408 17.9324 2.9288C16.0596 1.05352 13.5197 0 10.8713 0ZM10.8713 17.9992H4.29052L5.21922 17.0692C5.40521 16.8819 5.5096 16.6285 5.5096 16.3643C5.5096 16.1001 5.40521 15.8467 5.21922 15.6593C3.91165 14.3514 3.09738 12.63 2.91515 10.7883C2.73293 8.94665 3.19401 7.09869 4.21985 5.55928C5.24569 4.01986 6.77282 2.88423 8.54105 2.34587C10.3093 1.80751 12.2092 1.89972 13.9172 2.6068C15.6251 3.31388 17.0354 4.59207 17.9078 6.22362C18.7801 7.85516 19.0606 9.73911 18.7013 11.5545C18.3421 13.3699 17.3654 15.0044 15.9376 16.1795C14.5099 17.3547 12.7194 17.9977 10.8713 17.9992Z" fill="white"/>
</svg>
