<svg width="21" height="18" viewBox="0 0 21 18" fill="none" xmlns="http://www.w3.org/2000/svg">
<path d="M20.3733 3.71324C20.063 2.99472 19.6155 2.34361 19.056 1.79635C18.4961 1.24746 17.8359 0.811263 17.1114 0.511481C16.3601 0.199393 15.5543 0.0396477 14.7407 0.0415202C13.5994 0.0415202 12.4858 0.354056 11.5181 0.944401C11.2866 1.08562 11.0667 1.24073 10.8583 1.40973C10.65 1.24073 10.43 1.08562 10.1985 0.944401C9.23082 0.354056 8.11727 0.0415202 6.97593 0.0415202C6.15408 0.0415202 5.35769 0.198946 4.60529 0.511481C3.87836 0.812442 3.22319 1.24536 2.66062 1.79635C2.10037 2.34299 1.65282 2.99426 1.34334 3.71324C1.02155 4.46101 0.857178 5.25508 0.857178 6.0723C0.857178 6.84322 1.0146 7.64656 1.32714 8.46378C1.58874 9.14673 1.96379 9.85514 2.44301 10.5705C3.20235 11.7026 4.24645 12.8833 5.5429 14.0802C7.69129 16.0642 9.81885 17.4347 9.90914 17.4903L10.4578 17.8422C10.7009 17.9973 11.0134 17.9973 11.2565 17.8422L11.8052 17.4903C11.8955 17.4324 14.0207 16.0642 16.1714 14.0802C17.4679 12.8833 18.512 11.7026 19.2713 10.5705C19.7505 9.85514 20.1279 9.14673 20.3872 8.46378C20.6997 7.64656 20.8572 6.84322 20.8572 6.0723C20.8595 5.25508 20.6951 4.46101 20.3733 3.71324Z" fill="#FB0E66"/>
</svg>
