<svg width="542" height="544" viewBox="0 0 542 544" fill="none" xmlns="http://www.w3.org/2000/svg">
<g opacity="0.78">
<path fill-rule="evenodd" clip-rule="evenodd" d="M472.187 140.823C443.279 140.823 419.703 163.988 419.195 192.892L418.095 255.548L433.731 245.016C442.481 239.122 452.79 235.974 463.34 235.974H493.912C520.187 235.974 541.487 214.673 541.487 188.398C541.487 162.123 520.187 140.823 493.912 140.823H472.187ZM473.687 142.947C444.783 142.947 421.209 166.106 420.696 195.006L419.657 253.423L434.642 243.452C443.34 237.663 453.556 234.574 464.005 234.574H494.112C519.414 234.574 539.925 214.063 539.925 188.761C539.925 163.459 519.414 142.947 494.112 142.947H473.687Z" fill="#122659"/>
<rect x="487.958" y="172.114" width="22.8052" height="15.9108" fill="#F3EEEE"/>
<line y1="-2" x2="28.657" y2="-2" transform="matrix(-0.618955 0.785427 -0.741191 -0.671295 514.384 161.636)" stroke="black" stroke-width="4"/>
<line y1="-2" x2="12.4556" y2="-2" transform="matrix(0.697493 0.716591 -0.666459 0.745542 487.958 175.219)" stroke="black" stroke-width="4"/>
<rect x="450.674" y="204.712" width="22.8052" height="15.9108" fill="#F3EEEE"/>
<line y1="-2" x2="28.657" y2="-2" transform="matrix(-0.618955 0.785427 -0.741191 -0.671295 477.099 194.234)" stroke="black" stroke-width="4"/>
<line y1="-2" x2="12.4556" y2="-2" transform="matrix(0.697493 0.716591 -0.666459 0.745542 450.674 207.817)" stroke="black" stroke-width="4"/>
<rect x="452.484" y="172.114" width="22.8052" height="15.9108" fill="#F3EEEE"/>
<line y1="-2" x2="28.657" y2="-2" transform="matrix(-0.618955 0.785427 -0.741191 -0.671295 478.908 161.636)" stroke="black" stroke-width="4"/>
<line y1="-2" x2="12.4556" y2="-2" transform="matrix(0.697493 0.716591 -0.666459 0.745542 452.484 175.219)" stroke="black" stroke-width="4"/>
</g>
<rect x="485.425" y="202.384" width="18.8234" height="20.5676" fill="#D25050"/>
<g opacity="0.5">
<path fill-rule="evenodd" clip-rule="evenodd" d="M15.8882 246.624C7.11338 246.624 0 255.141 0 265.646V272.071V278.372C0 288.8 7.01165 297.283 15.7206 297.393L24.8311 297.509C24.9285 297.511 25.0261 297.513 25.1237 297.514L77.7763 298.179C86.8923 298.294 95.7098 301.444 102.835 307.131L105.792 309.491V309.49L106.245 288.51L106.246 288.456L106.727 266.137C106.958 255.443 99.7799 246.624 90.8444 246.624H15.8882ZM16.9807 248.46C8.46024 248.46 1.55304 256.417 1.55304 266.232V272.229V278.123C1.55304 287.865 8.36146 295.791 16.818 295.894L24.7584 295.991C24.8495 295.993 24.9407 295.994 25.0321 295.995L77.0835 296.628C85.9437 296.736 94.5306 299.711 101.558 305.108L104.279 307.197V307.196L104.656 290.381L104.657 290.324L105.187 266.691C105.411 256.699 98.4408 248.46 89.7643 248.46H16.9807Z" fill="#122659"/>
<path d="M26.0403 262.147C26.0403 262.147 27.9231 261.648 29.1825 262.341C30.3423 262.978 31.8974 264.475 31.8974 264.475C31.8974 264.475 33.0438 263.094 34.0694 262.535C35.2191 261.908 37.104 262.147 37.104 262.147C47.1863 266.038 31.9399 280.386 31.8975 280.386C31.855 280.386 17.5344 266.301 26.0403 262.147Z" fill="#FF0000"/>
<rect x="61.5386" y="262.147" width="18.8234" height="19.0154" fill="#10E8CE" fill-opacity="0.5"/>
<rect x="65.52" y="266.027" width="10.8596" height="3.49262" fill="#253E26"/>
<rect x="65.8823" y="273.013" width="10.4976" height="2.71648" fill="#478176"/>
</g>
<g opacity="0.5">
<path fill-rule="evenodd" clip-rule="evenodd" d="M78.1628 80.9185C69.9809 80.9185 63.3481 88.1206 63.3481 97.005V102.426V107.767C63.3481 116.586 69.886 123.76 78.0065 123.853L84.36 123.926C84.4424 123.928 84.5249 123.929 84.6076 123.93L135.961 124.518C144.435 124.615 152.67 127.335 159.534 132.304L161.992 134.084V134.082L162.258 122.895L162.259 122.844L162.864 97.4204C163.079 88.3764 156.386 80.9185 148.054 80.9185H78.1628ZM79.1817 82.4708C71.237 82.4708 64.7965 89.1998 64.7965 97.5005V102.561V107.556C64.7965 115.795 71.1449 122.498 79.03 122.585L84.4324 122.644C84.5094 122.646 84.5866 122.647 84.6638 122.648L135.327 123.207C143.552 123.297 151.559 125.86 158.309 130.561L160.581 132.144V132.142L160.77 124.485L160.772 124.433L161.428 97.8886C161.637 89.4387 155.138 82.4708 147.048 82.4708H79.1817Z" fill="#22635B"/>
<ellipse cx="90.6789" cy="101.68" rx="3.07689" ry="3.29858" fill="#67E8F9"/>
<ellipse cx="107.33" cy="101.68" rx="3.07689" ry="3.29858" fill="#67E8F9"/>
<ellipse cx="123.619" cy="101.68" rx="3.07689" ry="3.29858" fill="#67E8F9"/>
</g>
<path d="M186.062 121.276C173.994 122.132 177.423 132.734 182.985 135.053C184.807 136.217 191.112 137.04 194.388 134.276C194.53 134.156 194.2 138.639 194.93 141.262C196.619 147.32 201.735 151.919 205.609 152.71C209.795 153.563 217.415 151.162 218.46 149.217C217.959 120.372 218.147 64.2016 218.46 63.842C220.059 62.0035 190.87 63.2759 201.989 95.4696C196.566 96.2063 190.501 105.171 194.93 111.963C187.943 113.195 185.866 117.546 186.062 121.276Z" fill="#122658"/>
<path d="M195.292 165.127V162.605H209.41L195.292 165.127Z" fill="#2C1838"/>
<path d="M192.939 152.71C181.645 152.399 182.079 141.068 183.708 135.441C187.056 136.568 192.577 132.53 194.387 134.471C196.197 136.411 196.087 148.885 207.961 153.292C207.382 155 208.685 160.213 209.409 162.606H195.292C195.352 161.247 194.966 157.367 192.939 152.71Z" fill="#FFA27D"/>
<path d="M217.373 177.74C215.925 169.202 211.461 164.093 209.41 162.605C206.695 163.187 200.07 164.468 195.292 164.933C181.174 182.396 180.993 183.561 181.536 190.934C176.65 194.427 176.469 195.397 174.659 197.531C172.849 199.472 171.944 200.054 170.496 197.531C169.337 195.513 171.702 183.884 173.03 178.322H163.437C159.636 187.247 157.464 195.785 156.378 204.322C155.292 212.86 159.636 224.89 165.609 225.472C167.781 226.636 179.546 221.785 185.156 215.576C190.043 220.039 188.957 234.398 185.156 240.219C189.862 240.995 217.373 242.159 217.373 240.607C217.373 239.055 219.183 188.412 217.373 177.74Z" fill="#2D87BA"/>
<rect width="4.93549" height="28.1002" rx="2.46774" transform="matrix(0.924315 -0.38163 0.338092 0.941113 158.823 142.951)" fill="#2E2020"/>
<path d="M172.125 178.323H164.885C166.024 177.921 168.171 174.543 164.885 168.815C158.196 156.531 163.125 151.104 163.799 155.232C164.472 159.361 168.94 161.117 167.6 163.77C165.599 167.731 172.306 171.532 169.953 165.322C167.6 159.113 170.974 158.633 173.391 163.77C176.826 171.068 174.373 177.368 172.125 178.323Z" fill="#FFA27D"/>
<path d="M182.26 249.921C184.867 246.817 185.277 242.16 185.156 240.22C188.728 239.314 202.493 240.218 202.532 240.56C202.571 240.902 214.572 241.514 217.373 240.608C217.72 240.496 221.355 259.235 210.857 279.027C198.116 292.687 176.469 295.067 167.238 294.549C163.691 295.269 148.517 293.372 154.387 298.624C164.449 299.366 167.971 302.148 167.962 304.833C160.903 312.595 160.179 331.61 160.722 334.52C161.265 337.431 158.912 340.341 158.55 339.177C158.188 338.013 154.93 331.61 152.939 331.61C150.949 331.61 146.243 333.744 145.7 333.744C145.157 333.744 144.433 332.774 144.433 331.61C142.442 322.684 122.351 314.341 120.18 310.654C118.008 306.968 115.293 300.758 125.971 281.549C136.65 262.34 179.003 253.802 182.26 249.921Z" fill="#155E75"/>
<path d="M208.866 290.862C208.721 284.498 210.857 279.673 211.943 278.056C207.266 284.543 179.822 296.686 167.962 294.549C166.514 297.654 167.6 302.31 168.324 304.251C179.183 311.559 200.794 326.099 200.36 325.789C199.817 325.401 199.274 318.415 200.903 314.729C202.532 311.042 209.047 298.818 208.866 290.862Z" fill="#155E75"/>
<path d="M190.767 336.267C185.987 335.128 170.669 331.931 165.428 330.64C165.577 353.608 161.858 370.811 158.188 376.626C181.066 375.384 195.473 376.885 199.817 377.79V363.044C200.179 361.685 201.084 348.103 197.826 342.088C194.568 336.073 192.017 336.565 190.767 336.267Z" fill="#155E75"/>
<path d="M203.618 327.729L168.324 304.639C162.532 309.878 159.274 327.729 160.541 329.281C161.808 330.834 167.419 331.222 171.582 332.192C181.718 334.52 187.509 335.296 191.672 336.267C195.292 336.887 197.162 340.277 197.645 341.894C197.826 341.958 198.26 342.049 198.55 341.894C209.41 340.186 206.453 331.739 203.618 327.729Z" fill="#FFA27D"/>
<path d="M204.522 328.505V327.535C206.392 327.858 210.785 328.505 213.391 328.505C216.432 327.573 217.674 328.893 217.916 329.669C218.278 339.824 218.857 361.413 218.278 366.536C217.554 372.939 207.237 373.909 207.056 363.431C206.875 352.953 199.092 348.296 198.006 342.087C208.721 340.845 206.815 332.515 204.522 328.505Z" fill="#1A2454"/>
<path d="M191.31 376.819C187.111 376.043 176.167 376.237 171.22 376.431C172.969 384.128 176.07 402.199 174.478 412.91C179.69 422.999 187.147 419.054 190.224 415.82C192.336 403.143 195.509 377.595 191.31 376.819Z" fill="#FFA27D"/>
<ellipse cx="175.21" cy="435.007" rx="26.1626" ry="5.78723" fill="#B6CAD2"/>
<path d="M190.767 416.015C182.368 423.776 176.287 417.438 174.296 413.298C174.055 412.781 173.102 412.406 171.219 415.044C166.392 420.304 151.838 425.681 151.491 425.716C146.059 426.273 147.871 431.343 152.215 433.09C156.378 433.09 167.599 434.254 168.685 433.09C169.771 431.925 174.296 429.403 177.011 430.567C179.726 433.09 187.328 434.642 188.595 433.09C189.862 431.537 196.196 423.582 190.767 416.015Z" fill="#1A2454"/>
<path d="M231.489 524.48C225.521 535.616 175.8 543.581 120.632 543.884C60.592 545.044 11.8472 537.389 11.6741 527.973C4.1504 511.382 55.0203 508.181 119.273 506.822C180.268 505.533 240.113 508.93 231.489 524.48Z" fill="#E4D4D9"/>
<path d="M47.6009 352.886C45.429 360.182 45.972 363.299 46.515 363.946C46.9661 367.439 53.0118 360.643 52.3068 360.453C51.6018 360.264 50.8665 354.756 51.4018 350.364C51.9372 345.971 57.7075 360.422 60.4515 352.886C63.1956 345.35 60.9767 342.966 65.8813 338.915C70.3814 335.2 84.2081 341.903 85.7907 335.617C83.9807 329.02 86.8766 331.93 88.3246 326.885C89.7725 321.84 89.2295 317.184 88.3246 317.378C87.4196 317.572 85.4287 313.691 76.922 320.676C64.7954 318.736 61.3565 325.333 57.5556 329.214C53.7548 333.094 47.6009 331.348 47.6009 337.169C44.886 341.438 50.3158 343.766 47.6009 352.886Z" fill="black"/>
<path d="M74.026 374.035C84.3065 367.826 85.0667 347.259 84.1617 337.751C83.1038 338.05 82.0115 338.813 76.3789 337.751C66.9717 335.977 62.6234 339.691 62.0804 345.512C61.646 350.169 60.4514 353.015 59.9085 353.856C58.2363 355.21 56.4697 353.468 54.2977 350.751C52.1257 348.035 51.4948 349.402 50.8588 351.402C49.9626 352.942 47.9764 357.422 52.6687 360.91C52.3142 365.163 68.1602 376.492 74.026 374.035Z" fill="#FFA487"/>
<path d="M40.9043 376.946C46.8409 372.91 51.2209 364.398 52.6689 360.647C53.7805 363.702 62.3571 371.434 67.1484 373.065C60.9946 375.394 63.3475 381.409 61.1756 382.185C61.1756 381.215 49.954 373.841 40.9043 376.946Z" fill="#EE9D86"/>
<path d="M14.4795 441.045C13.7555 407.206 29.6227 385.81 37.6467 379.342C43.2574 373.629 54.8412 375.268 61.719 382.253C66.2438 390.984 81.0853 394.477 84.8862 402.044C87.6677 409.174 90.3832 411.034 91.7639 411.358C94.4162 411.98 93.9359 409.612 97.1938 411.358C103.914 417.204 107.269 413.934 107.872 411.94C112.216 415.239 121.411 422.573 123.438 425.523C123.438 428.433 120.361 441.045 112.035 441.045C103.71 441.045 76.1985 437.165 69.1397 433.09C66.9678 436.388 65.5198 449.583 68.2348 457.15C60.1262 461.962 35.1732 488.002 23.7103 500.42C20.935 494.728 15.2035 474.885 14.4795 441.045Z" fill="#67E8F9"/>
<path d="M175.745 512.062C175.28 511.602 174.262 508.454 173.392 507.017C176.951 504.366 184.432 498.907 185.88 498.286C185.301 501.856 190.345 505.595 192.939 507.017C193.241 507.923 193.373 510.2 191.491 512.062C189.77 517.022 179.438 515.716 175.745 512.062Z" fill="#FFA285"/>
<path d="M125.609 504.883C124.882 501.784 125.107 496.405 123.98 494.988C130.616 493.241 143.636 489.982 142.622 490.913C141.355 492.077 142.079 494.988 143.346 498.092C137.374 504.689 126.514 508.745 125.609 504.883Z" fill="#E08567"/>
<path d="M119.998 340.923L110.586 332.58L104.699 380.278L114.025 390.791L119.998 340.923Z" fill="#453333"/>
<path d="M113.483 480.435C112.759 474.226 106.304 485.868 103.167 492.465L100.995 484.509L120.361 462.777C124.563 453.969 144.425 428.188 145.519 485.673C145.731 496.792 123.8 494.599 120.904 494.599C118.591 489.812 115.718 481.746 113.483 480.435Z" fill="#116090"/>
<path d="M132.669 430.956C132.813 430.18 127.661 416.533 125.067 409.806H124.705L123.257 421.642C126.334 425.07 132.524 431.732 132.669 430.956Z" fill="#116090"/>
<path d="M67.9548 456.569C65.1232 448.205 67.396 437.302 68.8863 432.897C70.6747 434.001 84.038 437.039 90.4962 438.42C84.668 444.582 72.0725 456.633 67.9548 456.569Z" fill="#116090"/>
<path d="M116.198 395.254C105.339 385.164 92.0055 397.776 86.6963 405.344C85.2403 407.284 89.5922 415.433 97.737 411.941C102.443 416.986 107.33 414.528 108.416 412.329C109.726 410.728 114.173 403.243 116.198 395.254Z" fill="#116090"/>
<path d="M44.134 531.053C27.5431 526.721 23.4994 508.255 23.7107 500.42C37.6613 479.909 64.3556 456.172 67.7302 455.203C70.112 454.519 80.5552 446.112 89.0557 438.635C89.0313 436.649 97.7521 438.84 111.898 440.48C119.97 438.578 122.984 427.118 123.482 421.625C150.545 448.808 165.046 464.879 188.278 496.739L170.418 509.272C166.977 506.02 157.547 496.949 147.358 486.681C134.622 473.846 123.608 475.264 119.816 466.342C111.893 468.475 105.285 482.521 103.114 491.966C100.942 501.411 91.8241 507.29 88.8876 514.598C85.9511 521.906 64.8727 536.468 44.134 531.053Z" fill="#3485AF"/>
<path d="M90.3156 375.348C84.2342 378.763 78.9733 389.707 77.103 394.752C84.6908 399.733 82.308 401.118 86.1527 404.647C85.2477 400.573 90.3156 387.572 91.7635 387.766C93.2115 387.96 98.2793 388.542 102.985 379.617C107.691 370.691 99.5463 377.094 98.2793 378.841C97.0123 378.841 94.8404 382.721 96.1074 378.065C97.3743 373.408 106.424 373.214 106.424 371.08C99.3653 370.303 97.9173 371.08 90.3156 375.348Z" fill="#FCA78A"/>
<path d="M108.958 412.797L122.894 425.215C124.463 415.449 127.383 394.286 126.514 387.766C125.428 379.617 123.256 373.99 118.189 368.363C113.121 362.736 118.189 381.557 116.379 381.363C114.569 381.169 113.664 380.199 112.397 378.259C111.13 376.318 107.148 377.483 113.483 385.05C116.379 389.513 118.164 388.147 116.379 394.946C114.586 401.776 108.782 411.815 108.415 412.215C108.308 412.331 108.742 412.514 108.958 412.797Z" fill="#FCA78A"/>
<path d="M297.076 486.413C299.297 484.428 302.203 483.443 305.181 483.421L456.536 482.317C460.098 482.291 462.999 485.171 462.999 488.733C462.999 492.257 460.225 495.121 456.701 495.147C426.48 495.367 297.587 496.255 292.374 495.427C288.461 494.805 293.338 489.752 297.076 486.413Z" fill="#C8D7CF"/>
<path d="M130.135 520.6C124.053 521.842 124.101 510.898 124.886 505.271C132.846 506.655 133.081 498.269 144.976 497.898C145.7 498.868 147.329 505.271 152.216 507.017C154.319 510.284 164.085 515.717 168.324 514.779C171.944 515.555 171.944 521.764 169.591 522.54C167.238 523.316 139.365 523.51 130.135 520.6Z" fill="black"/>
<path d="M175.745 525.839C175.166 525.218 175.504 516.396 175.745 512.063C178.78 509.166 183.47 516.044 187.329 513.809C190.253 512.115 190.983 512.752 193.301 507.212C196.559 504.689 199.455 511.675 200.541 513.421C201.627 515.167 209.591 518.854 219.003 518.272C227.401 523.239 222.984 527.068 219.727 528.362C211.34 528.491 192.795 528.75 185.7 528.75C176.831 528.75 176.469 526.615 175.745 525.839Z" fill="black"/>
<rect x="221.633" y="6.48901" width="190.719" height="416.786" rx="41" fill="#FCFDFF"/>
<rect x="220.716" y="273.629" width="194.968" height="104.301" fill="#62DDF0"/>
<rect x="320.74" y="325.78" width="82.0509" height="2.72427" rx="1.36213" fill="#05788B"/>
<rect x="320.74" y="316.829" width="82.0509" height="2.72427" rx="1.36213" fill="#05788B"/>
<rect x="320.74" y="335.509" width="82.0509" height="2.72427" rx="1.36213" fill="#05788B"/>
<rect x="320.74" y="348.741" width="62.1242" height="2.72427" rx="1.36213" fill="#E5E7EB"/>
<rect x="320.74" y="354.968" width="62.1242" height="2.72427" rx="1.36213" fill="#E5E7EB"/>
<rect x="320.74" y="361.195" width="62.1242" height="2.72427" rx="1.36213" fill="#E5E7EB"/>
<rect x="320.74" y="367.422" width="62.1242" height="2.72427" rx="1.36213" fill="#E5E7EB"/>
<ellipse opacity="0.69" cx="273.268" cy="331.812" rx="34.9693" ry="34.8317" fill="#E5E7EB"/>
<path fill-rule="evenodd" clip-rule="evenodd" d="M273.073 367.81C293.141 367.81 309.41 351.344 309.41 331.032C309.41 310.72 293.141 294.255 273.073 294.255C253.005 294.255 236.736 310.72 236.736 331.032C236.736 351.344 253.005 367.81 273.073 367.81ZM273.072 365.474C292.061 365.474 307.455 349.967 307.455 330.837C307.455 311.708 292.061 296.2 273.072 296.2C254.083 296.2 238.689 311.708 238.689 330.837C238.689 349.967 254.083 365.474 273.072 365.474Z" fill="#126B7D"/>
<path d="M253.928 350.881C255.96 348.857 263.891 346.275 267.603 345.237H278.934C284.486 345.582 292.946 350.851 292.804 351.075C293.195 351.854 294.758 356.135 294.367 358.275C269.752 376.956 252.365 358.859 252.17 358.275C251.974 357.691 252.756 352.437 253.928 350.881Z" fill="#3BBA9F"/>
<path d="M267.603 346.211L267.994 343.487H278.739L279.129 346.211L277.176 350.687C276.98 350.362 276.472 349.597 276.003 349.13C273.815 350.064 271.575 349.519 270.729 349.13L269.361 350.687L267.603 346.211Z" fill="#FFF6F6"/>
<path d="M267.994 343.486V339.594H278.738V343.292C274.05 348.273 269.622 345.497 267.994 343.486Z" fill="#E6D3AC"/>
<path fill-rule="evenodd" clip-rule="evenodd" d="M273.839 346.059C275.355 345.892 277.03 345.107 278.738 343.291V339.594H273.839V346.059Z" fill="#CEBC9A"/>
<path d="M260.569 322.276C262.108 321.049 262.258 324.504 262.138 326.468L262.718 317.411L271.509 312.741L281.277 311.963L285.184 321.887C290.576 323.762 284.766 332.717 284.403 330.643C284.282 329.952 280.496 342.124 273.463 341.735C266.43 341.346 263.304 333.562 262.132 330.643C259.397 330.449 258.615 323.833 260.569 322.276Z" fill="#E3D1AA"/>
<path fill-rule="evenodd" clip-rule="evenodd" d="M273.839 341.443C279.31 341.262 282.765 333.856 284.002 331.205C284.316 330.531 284.487 330.164 284.512 330.301C284.884 332.384 290.84 323.393 285.313 321.51L281.307 311.546L273.839 312.129V341.443Z" fill="#CEBC9A"/>
<path d="M278.543 315.27C274.635 318.189 267.603 318.449 264.281 318.384C264.021 318.838 263.578 319.785 263.891 319.941C264.672 320.408 263.435 324.546 262.719 326.557L262.133 326.557C262.445 321.264 261.091 321.627 260.374 322.47C259.247 314.045 260.765 312.741 262.523 310.99C273.268 303.011 282.059 309.433 284.794 311.963C286.982 313.986 286.878 319.941 286.552 322.665C286.357 322.406 285.849 321.887 285.38 321.887C284.911 321.887 284.664 325 284.599 326.557H283.817C283.817 325.779 284.013 324.416 282.841 322.47C281.903 320.914 282.45 319.876 282.841 319.552C282.352 314.52 281.178 312.43 278.543 315.27Z" fill="black"/>
<rect x="220.716" y="40.5106" width="194.968" height="104.301" fill="#3EC7DC"/>
<path d="M295.954 20.0128C295.985 19.8566 296.006 19.7316 296.016 19.6378C296.026 19.5337 295.99 19.4243 295.907 19.3097C295.948 19.143 295.98 19.0128 296 18.9191C296.032 18.8253 296.037 18.6951 296.016 18.5284C296.11 18.2576 296.25 18.0284 296.438 17.8409C296.636 17.6534 296.849 17.4972 297.079 17.3722C297.308 17.2368 297.547 17.1274 297.797 17.0441C298.047 16.9503 298.282 16.8722 298.5 16.8097C298.5 16.768 298.48 16.7472 298.438 16.7472C298.396 16.7472 298.386 16.7212 298.407 16.6691C298.969 16.5649 299.532 16.4139 300.094 16.2159C300.667 16.018 301.25 15.8409 301.844 15.6847C302.438 15.5284 303.047 15.4347 303.672 15.4034C304.297 15.3618 304.954 15.4399 305.641 15.6378C305.683 15.7628 305.74 15.8826 305.813 15.9972C305.886 16.1118 305.959 16.2264 306.032 16.3409C306.115 16.4451 306.188 16.5493 306.25 16.6534C306.313 16.7576 306.349 16.867 306.36 16.9816C306.485 17.0962 306.584 17.2212 306.657 17.3566C306.74 17.4816 306.756 17.6534 306.704 17.8722C306.589 17.9555 306.469 18.0389 306.344 18.1222C306.219 18.2055 306.089 18.2837 305.954 18.3566C305.485 18.242 305.016 18.2003 304.547 18.2316C304.079 18.2628 303.657 18.2993 303.282 18.3409C303.167 18.2159 303.032 18.1587 302.875 18.1691C302.719 18.1691 302.553 18.1951 302.375 18.2472C302.209 18.2889 302.042 18.3357 301.875 18.3878C301.709 18.4295 301.553 18.4399 301.407 18.4191C301.292 18.5232 301.141 18.5962 300.954 18.6378C300.766 18.6691 300.568 18.6951 300.36 18.7159C300.349 18.768 300.36 18.8045 300.391 18.8253C300.422 18.8462 300.428 18.8878 300.407 18.9503C300.48 19.0441 300.579 19.1118 300.704 19.1534C300.829 19.1847 300.954 19.2159 301.079 19.2472C301.214 19.2784 301.334 19.3253 301.438 19.3878C301.542 19.4399 301.61 19.5284 301.641 19.6534C301.829 19.6639 301.99 19.7159 302.125 19.8097C302.261 19.893 302.375 19.9972 302.469 20.1222C302.563 20.2472 302.631 20.3826 302.672 20.5284C302.714 20.6639 302.73 20.7889 302.719 20.9034C302.761 21.0076 302.803 21.0493 302.844 21.0284C302.896 21.0076 302.954 21.0337 303.016 21.1066C303.058 21.2628 303.151 21.4295 303.297 21.6066C303.454 21.7732 303.573 21.9555 303.657 22.1534C303.678 22.4659 303.693 22.7472 303.704 22.9972C303.724 23.2472 303.683 23.492 303.579 23.7316C303.401 24.1899 303.146 24.6014 302.813 24.9659C302.48 25.3305 302.099 25.6534 301.672 25.9347C301.256 26.2055 300.813 26.4451 300.344 26.6534C299.875 26.8514 299.412 27.018 298.954 27.1534C298.912 27.143 298.86 27.143 298.797 27.1534C298.745 27.1639 298.735 27.1326 298.766 27.0597C298.672 27.143 298.563 27.1951 298.438 27.2159C298.323 27.2368 298.193 27.242 298.047 27.2316C297.912 27.2316 297.771 27.2264 297.625 27.2159C297.49 27.2055 297.355 27.2107 297.219 27.2316C297.136 27.1482 297.058 27.0649 296.985 26.9816C296.922 26.8982 296.87 26.7993 296.829 26.6847C296.776 26.6743 296.75 26.643 296.75 26.5909C296.761 26.5284 296.74 26.4972 296.688 26.4972C296.688 26.4555 296.693 26.4243 296.704 26.4034C296.714 26.3826 296.724 26.3618 296.735 26.3409C296.776 26.3097 296.792 26.2889 296.782 26.2784C296.782 26.2576 296.766 26.242 296.735 26.2316C296.714 26.2107 296.688 26.1899 296.657 26.1691C296.636 26.1482 296.631 26.1222 296.641 26.0909C296.693 25.9972 296.709 25.8878 296.688 25.7628C296.678 25.6274 296.667 25.492 296.657 25.3566C296.646 25.2212 296.657 25.0962 296.688 24.9816C296.719 24.8566 296.808 24.7524 296.954 24.6691C297.381 24.7107 297.782 24.6899 298.157 24.6066C298.542 24.5232 298.901 24.4087 299.235 24.2628C299.579 24.117 299.901 23.9607 300.204 23.7941C300.516 23.617 300.818 23.4555 301.11 23.3097C301.141 23.2055 301.188 23.117 301.25 23.0441C301.323 22.9712 301.396 22.9034 301.469 22.8409C301.542 22.768 301.61 22.6951 301.672 22.6222C301.735 22.5389 301.782 22.4399 301.813 22.3253C301.823 22.2837 301.823 22.2524 301.813 22.2316C301.803 22.2107 301.787 22.1951 301.766 22.1847C301.745 22.1639 301.724 22.143 301.704 22.1222C301.683 22.1014 301.672 22.0701 301.672 22.0284C301.641 22.018 301.61 22.0076 301.579 21.9972C301.558 21.9868 301.537 21.9816 301.516 21.9816C301.245 21.8462 300.959 21.7316 300.657 21.6378C300.355 21.5441 300.099 21.4399 299.891 21.3253C299.766 21.4087 299.641 21.4295 299.516 21.3878C299.391 21.3462 299.24 21.3045 299.063 21.2628C298.625 21.242 298.209 21.2003 297.813 21.1378C297.428 21.0753 297.053 20.9659 296.688 20.8097C296.667 20.7472 296.641 20.6951 296.61 20.6534C296.579 20.6014 296.506 20.5857 296.391 20.6066C296.318 20.5024 296.24 20.4087 296.157 20.3253C296.084 20.2316 296.016 20.1274 295.954 20.0128ZM312.969 25.5441C312.99 25.8149 312.959 26.0389 312.875 26.2159C312.792 26.393 312.678 26.5441 312.532 26.6691C312.386 26.7941 312.219 26.893 312.032 26.9659C311.844 27.0389 311.662 27.1066 311.485 27.1691C311.401 27.117 311.318 27.0649 311.235 27.0128C311.162 26.9503 311.073 26.9034 310.969 26.8722C310.834 26.6222 310.704 26.4034 310.579 26.2159C310.454 26.018 310.396 25.7941 310.407 25.5441C310.407 25.5337 310.412 25.4764 310.422 25.3722C310.443 25.268 310.464 25.1534 310.485 25.0284C310.516 24.9034 310.537 24.7889 310.547 24.6847C310.568 24.5701 310.579 24.5076 310.579 24.4972C310.339 24.518 310.089 24.5701 309.829 24.6534C309.568 24.7368 309.313 24.8357 309.063 24.9503C308.823 25.0649 308.594 25.1795 308.375 25.2941C308.167 25.4087 307.995 25.5076 307.86 25.5909C307.86 25.6222 307.839 25.7003 307.797 25.8253C307.756 25.9399 307.704 26.0649 307.641 26.2003C307.579 26.3253 307.511 26.4399 307.438 26.5441C307.365 26.6482 307.292 26.7003 307.219 26.7003C307.23 26.7316 307.245 26.7628 307.266 26.7941C307.287 26.8253 307.287 26.867 307.266 26.9191C307.12 26.9607 306.99 27.0128 306.875 27.0753C306.761 27.1482 306.641 27.2055 306.516 27.2472C306.391 27.2993 306.256 27.3253 306.11 27.3253C305.964 27.3253 305.792 27.2732 305.594 27.1691C305.594 27.1066 305.568 27.0545 305.516 27.0128C305.464 26.9607 305.407 26.9191 305.344 26.8878C305.292 26.8462 305.245 26.8149 305.204 26.7941C305.162 26.7628 305.141 26.7368 305.141 26.7159C305.089 26.7264 305.068 26.6899 305.079 26.6066C305.089 26.5232 305.131 26.5024 305.204 26.5441C305.089 26.3982 305.016 26.2732 304.985 26.1691C304.964 26.0545 304.907 25.9139 304.813 25.7472C304.834 25.7264 304.855 25.6899 304.875 25.6378C304.886 25.5857 304.896 25.5389 304.907 25.4972C304.917 25.4555 304.933 25.4243 304.954 25.4034C304.974 25.3826 305 25.3878 305.032 25.4191C305.011 25.3253 305.011 25.2472 305.032 25.1847C305.053 25.1222 305.073 25.0649 305.094 25.0128C305.115 24.9607 305.131 24.9087 305.141 24.8566C305.151 24.8045 305.136 24.7472 305.094 24.6847C305.261 24.4555 305.37 24.2107 305.422 23.9503C305.474 23.6795 305.506 23.4347 305.516 23.2159C305.589 23.143 305.651 23.0389 305.704 22.9034C305.766 22.768 305.813 22.6326 305.844 22.4972C305.875 22.3514 305.886 22.2159 305.875 22.0909C305.875 21.9555 305.86 21.8462 305.829 21.7628C305.839 21.7107 305.896 21.6951 306 21.7159C306.063 21.3722 306.105 20.9868 306.125 20.5597C306.157 20.1222 306.204 19.7107 306.266 19.3253C306.329 18.9295 306.433 18.5857 306.579 18.2941C306.724 17.992 306.959 17.7941 307.282 17.7003C307.344 17.9191 307.422 18.1118 307.516 18.2784C307.62 18.4451 307.73 18.6066 307.844 18.7628C307.969 18.9087 308.089 19.0597 308.204 19.2159C308.329 19.3722 308.443 19.5493 308.547 19.7472C308.537 19.9451 308.516 20.1743 308.485 20.4347C308.454 20.6951 308.412 20.9607 308.36 21.2316C308.318 21.5024 308.271 21.7628 308.219 22.0128C308.178 22.2628 308.136 22.4764 308.094 22.6534C308.105 22.7055 308.131 22.7368 308.172 22.7472C308.224 22.7576 308.235 22.8045 308.204 22.8878C308.454 22.8253 308.714 22.768 308.985 22.7159C309.256 22.6639 309.526 22.6066 309.797 22.5441C310.068 22.4816 310.329 22.4139 310.579 22.3409C310.839 22.2576 311.079 22.1587 311.297 22.0441C311.349 21.6378 311.417 21.2316 311.5 20.8253C311.584 20.4191 311.594 20.0024 311.532 19.5753C311.584 19.5337 311.625 19.4816 311.657 19.4191C311.688 19.3566 311.74 19.3149 311.813 19.2941C311.761 19.0962 311.74 18.8878 311.75 18.6691C311.761 18.4503 311.797 18.242 311.86 18.0441C311.933 17.8462 312.032 17.6795 312.157 17.5441C312.292 17.3982 312.454 17.3045 312.641 17.2628C312.756 17.4295 312.855 17.6118 312.938 17.8097C313.021 17.9972 313.105 18.1899 313.188 18.3878C313.282 18.5753 313.375 18.7576 313.469 18.9347C313.573 19.1014 313.704 19.2472 313.86 19.3722C313.891 19.6743 313.912 19.9868 313.922 20.3097C313.943 20.6326 313.959 20.9607 313.969 21.2941C313.886 21.6899 313.792 22.0753 313.688 22.4503C313.594 22.8149 313.526 23.2055 313.485 23.6222C313.412 23.7055 313.355 23.7993 313.313 23.9034C313.271 24.0076 313.23 24.117 313.188 24.2316C313.146 24.3357 313.099 24.4399 313.047 24.5441C312.995 24.6378 312.933 24.7212 312.86 24.7941C312.901 24.9191 312.907 25.0389 312.875 25.1534C312.855 25.2576 312.886 25.3878 312.969 25.5441ZM323.391 22.3722C323.381 22.4972 323.391 22.617 323.422 22.7316C323.454 22.8462 323.49 22.9607 323.532 23.0753C323.584 23.1795 323.631 23.2889 323.672 23.4034C323.714 23.518 323.745 23.6326 323.766 23.7472C323.787 23.893 323.787 24.0545 323.766 24.2316C323.745 24.3982 323.709 24.5649 323.657 24.7316C323.605 24.8878 323.537 25.0337 323.454 25.1691C323.37 25.2941 323.271 25.3878 323.157 25.4503C323.011 25.6378 322.834 25.7837 322.625 25.8878C322.417 25.992 322.224 26.117 322.047 26.2628C321.933 26.3357 321.803 26.3878 321.657 26.4191C321.521 26.4503 321.381 26.4816 321.235 26.5128C321.12 26.5753 320.985 26.643 320.829 26.7159C320.672 26.7784 320.511 26.8409 320.344 26.9034C320.178 26.9555 320.011 26.9972 319.844 27.0284C319.678 27.0493 319.532 27.0545 319.407 27.0441C319.094 27.1587 318.787 27.2316 318.485 27.2628C318.193 27.3045 317.849 27.2837 317.454 27.2003C317.079 27.2524 316.73 27.2368 316.407 27.1534C316.094 27.0701 315.813 26.9399 315.563 26.7628C315.323 26.5753 315.11 26.3566 314.922 26.1066C314.745 25.8462 314.599 25.5753 314.485 25.2941C314.401 24.7003 314.422 24.1639 314.547 23.6847C314.672 23.1951 314.849 22.7472 315.079 22.3409C315.318 21.9243 315.589 21.5441 315.891 21.2003C316.193 20.8462 316.485 20.5024 316.766 20.1691C316.829 20.1899 316.875 20.1899 316.907 20.1691C316.948 20.1378 316.985 20.1014 317.016 20.0597C317.047 20.0076 317.079 19.9607 317.11 19.9191C317.151 19.8774 317.198 19.8514 317.25 19.8409C317.323 19.6847 317.428 19.5701 317.563 19.4972C317.709 19.4139 317.823 19.2993 317.907 19.1534C318 19.1326 318.079 19.1014 318.141 19.0597C318.204 19.018 318.261 18.9712 318.313 18.9191C318.375 18.867 318.438 18.8201 318.5 18.7784C318.563 18.7264 318.636 18.6899 318.719 18.6691V18.4972C318.907 18.4139 319.042 18.3201 319.125 18.2159C319.219 18.1014 319.329 17.9659 319.454 17.8097C319.547 17.7993 319.62 17.7941 319.672 17.7941C319.735 17.7941 319.823 17.7837 319.938 17.7628C320.021 17.617 320.094 17.5076 320.157 17.4347C320.23 17.3618 320.334 17.2837 320.469 17.2003C320.594 17.2628 320.73 17.3045 320.875 17.3253C321.032 17.3462 321.167 17.4139 321.282 17.5284C321.292 17.6326 321.323 17.7159 321.375 17.7784C321.428 17.8305 321.485 17.8826 321.547 17.9347C321.61 17.9764 321.667 18.0232 321.719 18.0753C321.782 18.1274 321.823 18.2003 321.844 18.2941C321.886 18.3045 321.912 18.2993 321.922 18.2784C321.943 18.2576 321.974 18.2524 322.016 18.2628C322.047 18.4087 322.084 18.5076 322.125 18.5597C322.167 18.6014 322.209 18.6899 322.25 18.8253C322.198 18.9295 322.157 19.0389 322.125 19.1534C322.105 19.2576 322.042 19.3357 321.938 19.3878C321.928 19.4607 321.948 19.5024 322 19.5128C322.053 19.5128 322.084 19.5389 322.094 19.5909C322.105 19.6847 322.089 19.7524 322.047 19.7941C322.297 20.2003 322.521 20.6326 322.719 21.0909C322.917 21.5389 323.141 21.9659 323.391 22.3722ZM321.438 23.8566C321.48 23.742 321.532 23.6482 321.594 23.5753C321.667 23.5024 321.709 23.393 321.719 23.2472C321.667 23.1639 321.636 23.1014 321.625 23.0597C321.615 23.0076 321.61 22.9295 321.61 22.8253C321.381 22.5024 321.183 22.1587 321.016 21.7941C320.849 21.4191 320.662 21.0701 320.454 20.7472C320.433 20.7889 320.396 20.8305 320.344 20.8722C320.292 20.9139 320.235 20.9034 320.172 20.8409C320.151 20.9243 320.115 20.9868 320.063 21.0284C320.011 21.0597 319.954 21.0753 319.891 21.0753C319.829 21.0649 319.761 21.0493 319.688 21.0284C319.625 20.9972 319.568 20.9607 319.516 20.9191C319.214 21.1587 318.912 21.393 318.61 21.6222C318.308 21.8514 318.037 22.117 317.797 22.4191C317.756 22.4399 317.73 22.4503 317.719 22.4503C317.709 22.4399 317.678 22.4451 317.625 22.4659C317.542 22.6639 317.438 22.8462 317.313 23.0128C317.198 23.1691 317.084 23.3305 316.969 23.4972C316.855 23.6639 316.756 23.8409 316.672 24.0284C316.589 24.2159 316.542 24.4347 316.532 24.6847C316.709 24.8305 316.917 24.9191 317.157 24.9503C317.396 24.9816 317.641 24.9868 317.891 24.9659C318.151 24.9451 318.401 24.9139 318.641 24.8722C318.891 24.8201 319.12 24.7941 319.329 24.7941C319.766 24.6899 320.141 24.5545 320.454 24.3878C320.766 24.2107 321.094 24.0337 321.438 23.8566ZM326.86 25.4347C326.745 25.8514 326.641 26.1691 326.547 26.3878C326.464 26.5962 326.334 26.8149 326.157 27.0441C326.021 27.0232 325.928 27.0389 325.875 27.0909C325.823 27.143 325.766 27.1899 325.704 27.2316C325.61 27.2524 325.542 27.2524 325.5 27.2316C325.459 27.2107 325.422 27.1847 325.391 27.1534C325.36 27.1326 325.318 27.1066 325.266 27.0753C325.224 27.0545 325.157 27.0441 325.063 27.0441C325.042 26.9607 325.016 26.8826 324.985 26.8097C324.964 26.7368 324.896 26.7107 324.782 26.7316C324.803 26.6482 324.808 26.5805 324.797 26.5284C324.787 26.4659 324.771 26.4139 324.75 26.3722C324.74 26.3201 324.73 26.2732 324.719 26.2316C324.709 26.1795 324.714 26.117 324.735 26.0441C324.683 26.0441 324.641 26.0076 324.61 25.9347C324.579 25.8618 324.542 25.7889 324.5 25.7159C324.532 25.5284 324.563 25.3514 324.594 25.1847C324.625 25.018 324.662 24.8618 324.704 24.7159C324.756 24.5701 324.797 24.4243 324.829 24.2784C324.86 24.1326 324.844 23.9816 324.782 23.8253C324.823 23.8566 324.855 23.8514 324.875 23.8097C324.896 23.7576 324.912 23.6951 324.922 23.6222C324.933 23.5389 324.938 23.4607 324.938 23.3878C324.938 23.3045 324.933 23.2368 324.922 23.1847C325.026 22.9139 325.11 22.6378 325.172 22.3566C325.245 22.0649 325.308 21.7784 325.36 21.4972C325.422 21.2159 325.485 20.9399 325.547 20.6691C325.61 20.3982 325.693 20.1482 325.797 19.9191C325.912 19.8982 326.037 19.9139 326.172 19.9659C326.318 20.0076 326.407 20.0649 326.438 20.1378C326.709 19.9295 326.948 19.6795 327.157 19.3878C327.365 19.0857 327.579 18.7941 327.797 18.5128C328.016 18.2316 328.256 17.9816 328.516 17.7628C328.787 17.5441 329.125 17.4139 329.532 17.3722C329.74 17.5284 329.969 17.6899 330.219 17.8566C330.48 18.0128 330.693 18.2212 330.86 18.4816C330.943 18.5232 331.011 18.5701 331.063 18.6222C331.125 18.6639 331.198 18.7107 331.282 18.7628V18.9503C331.407 19.0649 331.506 19.2003 331.579 19.3566C331.662 19.5024 331.735 19.6639 331.797 19.8409C331.86 20.0076 331.922 20.1795 331.985 20.3566C332.047 20.5232 332.12 20.6847 332.204 20.8409C332.183 20.893 332.172 20.9399 332.172 20.9816C332.172 21.0128 332.178 21.0493 332.188 21.0909C332.209 21.1326 332.224 21.1743 332.235 21.2159C332.245 21.2576 332.245 21.3149 332.235 21.3878C332.204 21.8462 332.053 22.2159 331.782 22.4972C331.521 22.7784 331.204 23.0128 330.829 23.2003C330.454 23.3774 330.053 23.5284 329.625 23.6534C329.198 23.7784 328.813 23.9139 328.469 24.0597C328.469 24.1014 328.485 24.1222 328.516 24.1222C328.558 24.1222 328.573 24.1482 328.563 24.2003C328.813 24.3566 329.011 24.4816 329.157 24.5753C329.303 24.6691 329.438 24.7472 329.563 24.8097C329.698 24.8722 329.839 24.9295 329.985 24.9816C330.141 25.0232 330.355 25.0753 330.625 25.1378C330.896 25.2003 331.105 25.2524 331.25 25.2941C331.407 25.3253 331.547 25.3566 331.672 25.3878C331.797 25.4087 331.922 25.4295 332.047 25.4503C332.183 25.4607 332.37 25.4764 332.61 25.4972C332.704 25.5909 332.782 25.7055 332.844 25.8409C332.917 25.9659 332.964 26.0962 332.985 26.2316C333.006 26.3566 333.011 26.4816 333 26.6066C332.99 26.7212 332.954 26.8149 332.891 26.8878C332.901 26.9191 332.922 26.9347 332.954 26.9347C332.995 26.9243 333.037 26.9243 333.079 26.9347C333.016 26.9764 332.964 27.0284 332.922 27.0909C332.881 27.1534 332.839 27.2159 332.797 27.2784C332.756 27.3409 332.709 27.393 332.657 27.4347C332.605 27.4868 332.532 27.518 332.438 27.5284C332.115 27.6534 331.709 27.6587 331.219 27.5441C330.73 27.4399 330.11 27.242 329.36 26.9503C328.985 26.8045 328.678 26.6795 328.438 26.5753C328.209 26.4607 328.006 26.3514 327.829 26.2472C327.662 26.1326 327.506 26.0128 327.36 25.8878C327.224 25.7628 327.058 25.6118 326.86 25.4347ZM329.094 20.0753C328.98 20.242 328.849 20.393 328.704 20.5284C328.568 20.6639 328.433 20.8045 328.297 20.9503C328.172 21.0857 328.058 21.242 327.954 21.4191C327.849 21.5857 327.776 21.7837 327.735 22.0128C328.099 21.9712 328.48 21.8722 328.875 21.7159C329.271 21.5493 329.646 21.393 330 21.2472C329.959 20.9243 329.844 20.6639 329.657 20.4659C329.48 20.268 329.292 20.1378 329.094 20.0753ZM341.719 18.2628C341.73 18.3357 341.73 18.393 341.719 18.4347C341.719 18.4659 341.714 18.4972 341.704 18.5284C341.704 18.5597 341.704 18.5962 341.704 18.6378C341.704 18.6691 341.714 18.7212 341.735 18.7941C341.516 19.1482 341.261 19.393 340.969 19.5284C340.688 19.6534 340.381 19.7472 340.047 19.8097C339.714 19.8618 339.37 19.9191 339.016 19.9816C338.672 20.0441 338.329 20.1795 337.985 20.3878C337.849 20.3357 337.724 20.3357 337.61 20.3878C337.506 20.4399 337.349 20.4555 337.141 20.4347C337.079 20.4972 337 20.5441 336.907 20.5753C336.813 20.5962 336.719 20.6222 336.625 20.6534C336.667 20.7472 336.683 20.8462 336.672 20.9503C336.672 21.0441 336.688 21.1222 336.719 21.1847C337.084 21.2159 337.485 21.2107 337.922 21.1691C338.37 21.1274 338.808 21.1014 339.235 21.0909C339.245 21.143 339.24 21.1795 339.219 21.2003C339.198 21.2107 339.193 21.2368 339.204 21.2784C339.276 21.3305 339.349 21.3982 339.422 21.4816C339.495 21.5545 339.568 21.6274 339.641 21.7003C339.714 21.7732 339.787 21.8357 339.86 21.8878C339.943 21.9295 340.037 21.9451 340.141 21.9347C340.183 22.018 340.209 22.1118 340.219 22.2159C340.24 22.3097 340.23 22.4087 340.188 22.5128C340.021 22.6274 339.855 22.7472 339.688 22.8722C339.521 22.9868 339.344 23.0909 339.157 23.1847C338.98 23.2784 338.787 23.3566 338.579 23.4191C338.381 23.4712 338.157 23.492 337.907 23.4816C337.855 23.4816 337.813 23.4816 337.782 23.4816C337.761 23.4816 337.73 23.4659 337.688 23.4347C337.605 23.4868 337.485 23.5024 337.329 23.4816C337.183 23.4607 337.068 23.4764 336.985 23.5284C336.87 23.4764 336.73 23.4555 336.563 23.4659C336.407 23.4659 336.266 23.4451 336.141 23.4034C335.974 23.6222 335.823 23.8566 335.688 24.1066C335.553 24.3566 335.433 24.6222 335.329 24.9034C335.683 24.9555 335.974 24.9764 336.204 24.9659C336.443 24.9555 336.667 24.9399 336.875 24.9191C337.084 24.8878 337.297 24.8618 337.516 24.8409C337.735 24.8097 338.011 24.7993 338.344 24.8097C338.553 24.6951 338.797 24.6222 339.079 24.5909C339.37 24.5493 339.636 24.4868 339.875 24.4034C339.959 24.4347 340.032 24.492 340.094 24.5753C340.157 24.6482 340.214 24.7212 340.266 24.7941C340.329 24.8566 340.391 24.9139 340.454 24.9659C340.516 25.018 340.594 25.0389 340.688 25.0284C340.73 25.0701 340.756 25.1222 340.766 25.1847C340.787 25.2368 340.803 25.2889 340.813 25.3409C340.823 25.393 340.839 25.4399 340.86 25.4816C340.891 25.5128 340.938 25.5232 341 25.5128C340.844 25.8566 340.662 26.1222 340.454 26.3097C340.256 26.4868 340.026 26.6222 339.766 26.7159C339.506 26.8097 339.214 26.8826 338.891 26.9347C338.579 26.9868 338.23 27.0493 337.844 27.1222C337.75 27.143 337.672 27.1378 337.61 27.1066C337.547 27.0857 337.474 27.0753 337.391 27.0753C337.151 27.1274 336.865 27.1743 336.532 27.2159C336.198 27.2576 335.86 27.2732 335.516 27.2628C335.172 27.2524 334.844 27.2055 334.532 27.1222C334.219 27.0493 333.964 26.9139 333.766 26.7159C333.683 26.643 333.625 26.5597 333.594 26.4659C333.573 26.3618 333.506 26.2837 333.391 26.2316C333.381 26.0962 333.36 25.9451 333.329 25.7784C333.297 25.6118 333.266 25.4399 333.235 25.2628C333.204 25.0753 333.178 24.893 333.157 24.7159C333.146 24.5389 333.157 24.3774 333.188 24.2316C333.219 24.0753 333.282 23.9347 333.375 23.8097C333.48 23.6847 333.516 23.5493 333.485 23.4034C333.537 23.393 333.568 23.367 333.579 23.3253C333.589 23.2732 333.631 23.2524 333.704 23.2628C333.766 23.0753 333.834 22.8982 333.907 22.7316C333.98 22.5649 334.053 22.4034 334.125 22.2472C334.209 22.0909 334.287 21.9347 334.36 21.7784C334.443 21.6118 334.521 21.4295 334.594 21.2316C334.448 21.0962 334.339 20.9503 334.266 20.7941C334.204 20.6274 334.157 20.4659 334.125 20.3097C334.094 20.143 334.068 19.9764 334.047 19.8097C334.026 19.6326 333.99 19.4555 333.938 19.2784C334.042 19.1222 334.167 18.9972 334.313 18.9034C334.469 18.7993 334.636 18.7159 334.813 18.6534C334.99 18.5909 335.183 18.5389 335.391 18.4972C335.599 18.4555 335.818 18.4087 336.047 18.3566C336.464 18.2212 336.834 18.117 337.157 18.0441C337.49 17.9712 337.813 17.9139 338.125 17.8722C338.448 17.8201 338.782 17.7732 339.125 17.7316C339.469 17.6899 339.86 17.6274 340.297 17.5441C340.391 17.6378 340.48 17.6847 340.563 17.6847C340.605 17.5909 340.651 17.5649 340.704 17.6066C340.766 17.6378 340.792 17.6066 340.782 17.5128C340.886 17.6899 341.016 17.8409 341.172 17.9659C341.339 18.0805 341.521 18.1795 341.719 18.2628Z" fill="#22D3EE"/>
<rect x="320.74" y="92.6614" width="82.0509" height="2.72427" rx="1.36213" fill="#05788B"/>
<rect x="320.74" y="83.7103" width="82.0509" height="2.72427" rx="1.36213" fill="#05788B"/>
<rect x="320.74" y="102.391" width="82.0509" height="2.72427" rx="1.36213" fill="#05788B"/>
<rect x="320.74" y="115.623" width="62.1242" height="2.72427" rx="1.36213" fill="#E5E7EB"/>
<rect x="320.74" y="121.849" width="62.1242" height="2.72427" rx="1.36213" fill="#E5E7EB"/>
<rect x="320.74" y="128.076" width="62.1242" height="2.72427" rx="1.36213" fill="#E5E7EB"/>
<rect x="320.74" y="134.303" width="62.1242" height="2.72427" rx="1.36213" fill="#E5E7EB"/>
<ellipse opacity="0.69" cx="273.268" cy="97.1358" rx="34.9693" ry="34.8317" fill="#E5E7EB"/>
<path d="M268.385 70.4766C255.898 73.2389 256.541 83.7611 258.226 88.5736L270.338 92.4654L274.441 112.119L289.093 119.708L302.573 118.346L307.066 104.725C307.095 97.9305 303.555 97.4556 299.056 99.6652C294.557 101.875 292.488 97.8293 293.977 95.384C295.465 92.9387 294.257 87.5454 288.702 89.5463C286.136 90.2592 285.395 88.1059 286.615 87.017C288.907 82.2558 285.062 68.4736 268.385 70.4766Z" fill="black"/>
<path d="M288.311 113.676L282.06 112.509C284.99 120.682 282.06 128.854 282.06 131.189C285.342 130.567 289.158 128.465 290.655 127.492L288.311 113.676Z" fill="#272727"/>
<path d="M257.64 115.817C258.109 114.727 264.087 113.417 267.017 112.898C262.915 117.957 269.948 132.162 269.166 132.162C268.385 132.162 264.087 131.384 262.719 130.8C259.203 128.27 258.031 117.179 257.64 115.817Z" fill="#434449"/>
<path d="M267.408 112.314C268.658 111.224 267.538 105.633 267.017 102.974C270.99 101.742 278.465 100.016 278.153 101.417C277.762 103.168 278.543 106.087 281.278 110.562C285.967 117.762 274.832 126.713 273.073 125.935C264.087 119.708 265.845 113.676 267.408 112.314Z" fill="#E2BA8B"/>
<path d="M251.261 118.151C256.265 115.821 257.033 115.761 257.903 115.621L262.983 130.799C262.605 131.077 260.608 130.383 258.617 129.632C256.193 128.717 248.886 123.012 247.677 121.848C246.927 121.126 249.727 119.16 251.261 118.151Z" fill="#67E8F9"/>
<path d="M295.735 115.233C293.235 115.077 289.744 114.065 288.312 113.676C288.832 117.763 290.226 126.792 290.851 127.881C295.344 125.546 302.377 117.568 301.987 117.179C301.596 116.79 298.861 115.428 295.735 115.233Z" fill="#67E8F9"/>
<path d="M277.566 80.9842C271.314 85.9657 261.937 88.1192 258.03 88.5732C260.405 95.4718 267.538 107.77 273.659 105.308C279.591 102.921 283.156 90.9442 283.622 93.2432C284.087 95.5422 285.943 91.0618 285.771 88.5732C285.472 84.2581 282.673 85.6399 282.254 87.0165C281.934 88.0699 282.254 78.6491 277.566 80.9842Z" fill="#F8DB92"/>
<path fill-rule="evenodd" clip-rule="evenodd" d="M273.073 134.692C293.141 134.692 309.41 118.226 309.41 97.9144C309.41 77.6026 293.141 61.1367 273.073 61.1367C253.005 61.1367 236.736 77.6026 236.736 97.9144C236.736 118.226 253.005 134.692 273.073 134.692ZM273.072 132.357C292.061 132.357 307.455 116.849 307.455 97.7196C307.455 78.5901 292.061 63.0825 273.072 63.0825C254.083 63.0825 238.689 78.5901 238.689 97.7196C238.689 116.849 254.083 132.357 273.072 132.357Z" fill="#126B7D"/>
<rect x="220.716" y="156.876" width="194.968" height="104.301" fill="#51D5E9" fill-opacity="0.77"/>
<rect x="320.74" y="209.026" width="82.0509" height="2.72427" rx="1.36213" fill="#05788B"/>
<rect x="320.74" y="200.075" width="82.0509" height="2.72427" rx="1.36213" fill="#05788B"/>
<rect x="320.74" y="218.756" width="82.0509" height="2.72427" rx="1.36213" fill="#05788B"/>
<rect x="320.74" y="231.988" width="62.1242" height="2.72427" rx="1.36213" fill="#E5E7EB"/>
<rect x="320.74" y="238.214" width="62.1242" height="2.72427" rx="1.36213" fill="#E5E7EB"/>
<rect x="320.74" y="244.441" width="62.1242" height="2.72427" rx="1.36213" fill="#E5E7EB"/>
<rect x="320.74" y="250.668" width="62.1242" height="2.72427" rx="1.36213" fill="#E5E7EB"/>
<ellipse cx="273.268" cy="214.281" rx="34.9693" ry="34.8317" fill="#E5E7EB"/>
<path d="M255.686 229.848C257.092 228.914 262.002 228.161 264.282 227.902C270.208 227.124 282.294 225.917 283.232 227.318C284.404 229.07 289.092 231.405 294.562 231.988C300.032 232.572 299.056 233.74 301.009 234.907C289.913 247.672 277.631 249.631 272.878 248.918C258.848 248.842 248.74 239.479 246.113 235.686C245.918 235.815 245.84 235.452 247.09 233.74C248.653 231.599 253.928 231.015 255.686 229.848Z" fill="#2B7A67"/>
<path d="M259.202 214.281L261.938 208.833L266.235 210.973L269.752 222.454C269.296 223.232 267.955 225.062 266.235 226.151C264.086 227.513 263.305 227.708 260.375 227.319C250.372 228.564 255.426 219.146 259.202 214.281Z" fill="#6D1735"/>
<path d="M258.617 188.984C255.534 195.271 258.096 197.935 261.548 200.076C267.734 203.579 279.911 211.596 279.13 215.643C278.153 220.703 279.905 223.988 280.46 224.789C287.9 235.528 300.401 226.276 294.135 219.73C287.869 213.183 296.973 211.726 292.414 208.833C287.335 209.222 286.749 200.854 286.749 200.076C286.749 199.297 288.116 194.822 284.014 191.903C280.381 183.47 261.593 182.917 258.617 188.984Z" fill="#6D1735"/>
<path d="M264.281 227.902C268.032 227.902 268.579 221.157 268.384 217.784C272.161 213.892 279.597 207.976 279.128 215.449C278.66 222.921 281.538 226.475 283.036 227.319C285.653 234.716 276.451 237.468 272.486 236.854C268.319 236.207 261.546 231.21 264.281 227.902Z" fill="#E89573"/>
<path d="M274.245 195.406C269.557 200.231 264.087 200.53 261.938 200.076C260.961 201.243 261.938 203.968 261.352 203.384C260.765 202.8 260.148 202.493 259.593 203.384C258.895 204.505 259.272 207.38 261.938 208.249C263.11 215.059 269.752 219.34 272.682 219.729C275.613 220.119 282.255 212.919 283.232 208.832C285.967 205.913 285.576 201.243 282.646 202.605C280.301 203.695 280.757 198.649 281.278 195.989C280.822 195.276 278.778 194.16 274.245 195.406Z" fill="#F4A582"/>
<path fill-rule="evenodd" clip-rule="evenodd" d="M273.073 251.059C293.141 251.059 309.41 234.593 309.41 214.281C309.41 193.969 293.141 177.504 273.073 177.504C253.005 177.504 236.736 193.969 236.736 214.281C236.736 234.593 253.005 251.059 273.073 251.059ZM273.072 248.724C292.061 248.724 307.455 233.216 307.455 214.086C307.455 194.957 292.061 179.449 273.072 179.449C254.083 179.449 238.689 194.957 238.689 214.086C238.689 233.216 254.083 248.724 273.072 248.724Z" fill="#126B7D"/>
<path fill-rule="evenodd" clip-rule="evenodd" d="M245.992 0C229.423 0 215.992 13.4315 215.992 30V399.016C215.992 415.584 229.423 429.016 245.992 429.016H387.48C404.048 429.016 417.48 415.584 417.48 399.016V30C417.48 13.4315 404.048 0 387.48 0H245.992ZM247.304 5.78725C232.945 5.78725 221.304 17.4279 221.304 31.7873V395.638C221.304 409.998 232.945 421.638 247.304 421.638H386.814C401.173 421.638 412.814 409.998 412.814 395.638V31.7872C412.814 17.4278 401.173 5.78725 386.814 5.78725H247.304Z" fill="#122659"/>
<path d="M394.566 368.671C391.67 364.791 394.083 360.328 395.652 358.582L399.272 361.298C398.91 365.373 397.462 372.552 394.566 368.671Z" fill="#D84F4F"/>
<path d="M504.973 351.596C496.575 313.876 464.068 308.197 448.865 310.073L416.829 407.866L312.214 435.225L296.468 484.704C295.503 486.838 294.513 491.417 298.278 492.659C302.984 494.212 451.218 491.883 491.941 488.391C532.303 471.121 518.366 424.165 514.203 415.628L514.201 415.623C510.037 407.082 499.725 385.934 504.973 351.596Z" fill="url(#paint0_linear_255_55)"/>
<path d="M389.137 325.79C389.137 319.891 402.772 310.267 409.589 306.192H414.114L412.123 319.581C409.468 329.929 402.639 350.626 396.557 350.626C386.965 348.104 385.517 335.88 389.137 325.79Z" fill="#164E63"/>
<path d="M402.892 269.326C395.363 277.708 399.514 282.52 402.531 283.878C402.531 283.878 426.422 291.252 424.431 298.625C422.44 305.998 424.033 311.664 426.784 317.252C441.468 314.467 457.873 339.333 460.268 344.805C462.285 349.416 464.792 375.657 461.353 386.911C458.602 395.914 448.081 402.821 443.435 405.15C443.616 406.508 444.087 410.389 444.521 415.046C453.028 419.896 482.892 436.583 497.552 393.12C512.213 349.656 476.376 339.372 475.471 337.82C474.566 336.268 470.222 317.446 461.534 318.61C452.847 319.775 447.598 312.013 448.322 304.058C446.295 289.001 436.376 281.744 431.671 279.998L431.639 279.967C426.887 275.266 412.464 261.001 402.892 269.326Z" fill="#164E63"/>
<path d="M401.987 431.151C382.874 431.151 370.977 429.987 365.788 431.927L340.992 402.628H394.023C399.67 404.956 432.032 404.956 444.883 404.568C445.209 410.336 448.141 422.031 442.892 430.181C437.643 438.33 425.878 443.957 401.987 431.151Z" fill="#0E608F"/>
<path d="M413.209 282.908C408.865 286.013 404.522 284.849 402.893 283.878C403.955 293.87 407.647 310.813 414.476 308.133C422.663 304.92 424.069 298.043 425.155 297.267C424.974 301.73 430.766 289.117 426.422 289.894C422.112 290.664 421.722 288.569 421.539 287.588L421.535 287.565C421.354 286.595 420.268 282.908 413.209 282.908Z" fill="#F8BD93"/>
<path d="M376.829 382.836C385.806 383.147 394.566 370.548 397.281 364.209C409.046 365.179 404.34 375.657 403.073 381.09C400.72 386.329 391.852 388.657 385.879 390.21C379.906 391.762 376.829 383.613 376.829 382.836Z" fill="#F8BD93"/>
<path d="M411.037 319.387V307.745C411.037 308.133 418.639 310.073 424.431 298.237C422.802 304.446 423.526 308.521 426.603 317.252C420.232 330.757 413.571 324.302 411.037 319.387Z" fill="#EAAC80"/>
<path d="M441.805 378.956C439.199 373.678 439.814 366.149 440.9 363.239L461.896 356.06C462.559 361.363 463.669 373.368 462.8 378.956C462.172 392.314 461.924 396.132 448.14 403.986C439.657 408.82 412.437 406.861 401.263 403.986C393.372 401.956 388.955 400.17 387.869 400.688C384.611 395.966 378.457 386.329 379.905 385.553C381.715 384.583 387.869 386.717 403.073 390.21C418.276 393.702 440.357 385.941 441.805 378.956Z" fill="#EAAC80"/>
<path d="M400.539 339.566L410.494 318.998C416.414 328.353 423.204 319.378 426.783 317.058C430.233 314.822 441.648 318.282 448.321 328.506C457.954 337.994 465.258 353.132 462.439 355.865C458.263 359.913 441.798 362.546 441.263 363.626C440.498 365.168 440.539 375.85 441.987 378.567C443.145 380.74 439.151 383.094 438.186 384C438.608 384.453 435.29 385.824 428.774 388.463C422.258 391.101 407.718 391.373 401.263 391.179C401.504 388.98 403.471 380.585 402.168 368.477C390.874 363.354 396.376 347.068 400.539 339.566Z" fill="#0070AF"/>
<path d="M281.265 486.798L269.798 475.196C267.708 478.304 263.527 484.768 263.527 485.762C263.527 487.005 267.111 488.249 268.902 490.942C270.694 493.635 277.861 495.707 277.861 492.806C277.861 490.486 280.13 487.834 281.265 486.798Z" fill="#E3C28F"/>
<path d="M264.069 470.152C269.861 461.614 301.475 428.952 316.558 413.688C321.625 421.384 331.761 437.01 331.761 437.942C331.761 439.106 329.408 446.673 327.779 447.449C326.15 448.226 322.226 453.437 316.558 458.509C312.622 462.031 314.929 470.152 310.585 470.152C306.241 470.152 303.182 481.969 302.078 483.928L289.589 495.764C282.832 488.714 268.268 473.722 264.069 470.152Z" fill="#0E608F"/>
<path d="M346.06 400.359C346.06 399.254 346.955 398.359 348.06 398.359H395.1C396.204 398.359 397.1 399.254 397.1 400.359V401.404C397.1 402.508 396.204 403.404 395.1 403.404H348.06C346.955 403.404 346.06 402.508 346.06 401.404V400.359Z" fill="#142558"/>
<path d="M298.277 368.665L368.341 368.777L390.229 403.589L323.23 402.823L298.277 368.665Z" fill="#142558"/>
<path d="M371.58 466.271L359.092 474.226C363.979 478.883 361.988 478.107 363.436 480.823C371.942 484.122 376.829 473.256 375.743 474.226C374.874 475.002 372.606 469.246 371.58 466.271Z" fill="#E3C28F"/>
<path d="M315.29 412.136C310.657 402.512 312.817 393.767 314.747 390.986C321.647 381.087 343.272 387.515 347.869 403.792C350.758 414.021 356.376 415.24 363.797 428.629C371.217 442.017 371.579 440.659 373.57 445.122C371.543 455.211 375.38 460.709 377.552 462.197C372.484 466.013 359.887 474.654 350.041 478.69C342.801 461.421 330.675 439.495 330.313 437.942C329.951 436.39 321.082 424.166 315.29 412.136Z" fill="#2F87B9"/>
<path d="M231.853 510.705C226.061 508.842 228.474 504.625 230.405 502.749C243.859 501.973 271.78 501.081 275.834 503.719C279.888 506.358 276.317 510.252 274.024 511.869C252.058 515.132 233.509 512.124 231.853 510.705Z" fill="#DBDEE3"/>
<path d="M376.829 474.615C371.617 482.686 365.728 482.247 363.436 481.018C362.073 490.661 363.617 484.655 363.436 497.317C363.255 509.936 358.634 510.399 358.73 517.884C358.831 525.757 370.502 521.831 372.486 510.705C377.625 492.32 381.806 492.829 383.888 489.167C386.122 485.239 384.069 482.57 376.829 474.615Z" fill="#112460"/>
<path d="M263.708 486.257C268.247 491.514 272.667 495.253 277.644 494.212C276.739 503.138 277.282 508.377 263.708 506.048C259.943 506.514 244.281 506.76 236.921 506.825C232.818 505.272 226.278 499.878 234.387 495.376C239.274 493.824 247.601 496.742 252.828 492.078C255.784 489.441 258.542 488.221 260.269 487.033C260.612 486.797 261.477 486.608 262.263 486.474C263.023 486.158 263.708 485.927 263.708 486.257Z" fill="#112460"/>
<path d="M470.349 531.453C452.388 531.011 449.183 510.319 450.097 500.026L489.552 499.633C489.552 499.633 492.799 532.006 470.349 531.453Z" fill="url(#paint1_linear_255_55)"/>
<path d="M447.674 456.056C448.688 469.25 452.345 477.666 454.276 480.77H458.887L458.62 479.922C459.405 476.831 456.094 473.516 454.276 470.802C451.601 465.716 452.285 458.008 454.543 455.74C456.715 451.704 454.845 449.66 453.638 449.143C452.19 446.504 453.035 444.033 453.638 443.128C456.915 439.237 453.501 435.774 451.828 434.202C450.287 431.01 455.719 428.716 453.638 426.634C449.335 422.33 447.553 425.105 447.217 427.727C446.881 430.349 446.557 450.88 447.674 456.056Z" fill="#172F60"/>
<path d="M476.014 480.074H470.042C470.946 476.388 472.032 475.417 471.489 472.701C470.946 469.985 473.661 460.671 474.747 459.507C475.833 458.342 476.919 446.506 474.747 442.626C472.575 438.745 477.462 436.417 476.919 434.476C476.376 432.536 479.996 418.565 479.091 416.431C478.186 414.297 478.367 398.58 480.539 387.714C482.711 376.848 484.702 387.52 483.978 389.654C483.254 391.789 479.453 402.267 482.168 405.177C484.883 408.088 483.978 417.983 481.263 426.909C478.548 435.835 479.091 440.879 479.815 446.118C480.539 451.357 479.634 458.537 479.453 460.671C479.272 462.805 475.471 465.522 476.738 468.82C477.752 471.459 476.678 477.423 476.014 480.074Z" fill="#172F60"/>
<path d="M459.165 480.919H469.663C469.542 479.884 469.373 477.504 469.663 476.262C469.953 475.02 472.076 472.122 473.102 470.829C478.634 467.091 468.161 443.833 473.645 442.306C476.031 441.641 477.966 434.821 478.894 424.455C479.599 416.576 478.277 411.661 478.17 403.499C478.133 400.732 479.343 393.997 479.437 391.857C479.982 385.477 477.992 384.298 477.084 383.902C474.269 383.562 474.439 389.101 474.188 391.857C473.937 394.613 473.464 405.439 473.645 410.484C472.018 404.644 472.016 414.947 471.654 416.499C471.292 418.051 470.359 420.35 469.663 416.499C469.523 415.722 469.361 406.215 469.663 401.171C470.242 394.03 468.456 392.892 467.491 393.215C463.292 387.472 465.741 427.042 467.491 447.545C468.948 452.953 469.293 466.22 467.491 467.918C464.607 476.088 460.779 472.308 459.165 469.277C456.631 469.277 458.26 458.605 455.183 458.799C452.107 458.993 452.65 468.306 454.098 469.277C455.545 470.247 456.631 473.933 458.26 475.68C459.564 477.077 459.407 479.755 459.165 480.919Z" fill="#0D868F"/>
<path d="M491.216 468.763C486.383 470.107 486.571 477.43 487.234 480.793H474.022C473.298 482.41 472.284 484.247 474.022 478.659C476.194 471.674 472.755 469.927 476.013 463.718C479.271 457.509 477.099 447.808 478.185 444.703C479.271 441.598 479.995 434.807 479.271 430.538C478.547 426.27 484.701 412.881 481.986 406.478C479.271 400.075 485.244 389.403 484.701 382.418C484.158 375.433 489.044 369.417 489.406 379.895C489.768 390.373 486.51 398.911 487.596 403.373C488.682 407.836 483.615 425.881 484.338 429.762C485.062 433.643 486.329 438.882 484.338 445.867C482.348 452.852 476.194 473.42 481.805 467.599C487.415 461.778 484.7 438.106 488.32 434.807C491.216 432.168 491.216 417.926 490.854 411.135C488.682 397.475 493.942 398.634 497.732 394.254C501.522 389.874 501.968 400.941 497.732 412.881C497.082 413.472 495.518 414.726 497.008 423.165C498.787 433.239 491.406 442.904 488.682 447.808C485.968 452.694 496.813 467.207 491.216 468.763Z" fill="#19808F"/>
<path d="M457.627 453.034C458.351 454.276 459.014 464.806 459.256 469.915C464.686 479.035 468.029 467.758 467.943 467.587C467.792 467.284 467.67 467.069 467.4 466.617C466.711 465.461 465.229 461.572 463.962 459.244C462.695 456.915 461.79 443.915 462.876 442.168C463.962 440.422 464.686 429.556 463.962 428.974C463.238 428.392 462.514 420.631 463.419 417.72C464.324 414.81 461.79 413.645 461.79 411.705C461.79 409.765 461.066 409.377 459.618 408.989C458.17 408.6 460.342 413.063 458.17 414.422C455.998 415.78 460.885 432.467 457.627 433.437C454.369 434.407 456.722 451.482 457.627 453.034Z" fill="#152D59"/>
<path d="M453.481 535.971C446.965 531.623 450.887 527.627 453.481 526.463C455.437 525.625 456.8 525.762 457.282 525.881C469.531 536.442 480.279 530.348 484.069 525.687C484.494 525.669 485.002 525.67 486.06 525.687C489.391 525.842 492.154 527.821 493.119 528.792C500.684 539.422 461.401 541.255 453.481 535.971Z" fill="#E7D9E4"/>
<rect x="443.435" y="479.881" width="52.1262" height="21.7319" rx="10.8659" fill="#67E8F9"/>
<path d="M211.545 475.988C203.147 472.573 208.649 469.779 212.45 468.809C223.97 472.489 228.542 472.036 232.903 468.615C233.204 468.615 234.423 468.654 236.884 468.809C243.545 470.827 239.66 474.048 236.884 475.406C231.937 477.023 219.943 479.403 211.545 475.988Z" fill="#DEE1E6"/>
<path d="M233.084 428.644H228.016C228.77 420.992 229.811 417.543 233.084 413.315C243.06 403.386 235.846 405.701 241.41 397.792C246.821 390.101 251.002 397.986 251.907 399.927C252.812 401.867 253.355 413.315 253.174 413.315C252.993 413.315 253.898 437.763 249.011 435.823C244.125 433.883 245.573 420.882 245.573 420.106C245.573 419.33 247.02 413.509 243.401 413.315C240.505 413.16 235.316 423.469 233.084 428.644Z" fill="#1C828B"/>
<path d="M221.319 428.838L227.835 428.644C228.378 427.285 226.749 422.046 227.292 419.718C227.835 417.39 224.577 416.807 225.12 412.539C225.12 404.001 227.473 407.106 230.55 399.926C233.627 392.747 231.817 387.12 230.55 385.762C229.283 384.404 229.464 376.642 232.179 376.642C232.179 364.03 238.875 365.97 236.703 363.06C236.16 359.567 238.694 356.851 239.78 352.388C241.409 347.731 239.78 342.492 236.341 342.104C233.59 341.794 231.817 345.985 231.274 348.119C230.429 349.219 228.848 352.621 229.283 357.433C229.717 362.245 227.412 367.329 226.206 369.269C225.647 370.08 224.891 373.618 225.12 374.896C225.756 378.453 219.871 382.269 219.871 382.269C216.794 391.583 225.923 388.706 219.871 402.255C215.655 411.695 215.467 415.255 216.794 416.419C221.428 421.697 221.741 426.897 221.319 428.838Z" fill="#53B9B5"/>
<path d="M221.138 428.838L213.174 428.45C214.019 427.35 214.695 424.53 210.64 422.047C206.586 419.563 203.883 412.603 203.039 409.434C200.966 405.255 200.442 392.415 200.867 388.284C200.634 383.917 200.416 384.213 195.618 369.269C190.438 353.138 197.066 352 198.152 352.582C199.238 353.164 204.124 355.687 203.219 365.194C202.496 372.801 205.934 381.17 207.744 384.404C210.459 388.284 213.174 394.3 211.726 401.867C210.278 409.434 217.699 417.972 220.414 420.494C222.586 422.512 221.802 426.897 221.138 428.838Z" fill="#1C808D"/>
<path d="M206.513 461.28L204.522 436.001H240.359L238.368 461.28C226.516 478.35 219.571 479.244 206.513 461.28Z" fill="url(#paint2_linear_255_55)"/>
<g filter="url(#filter0_d_255_55)">
<path d="M239.715 427.463C225.34 428.519 217.457 428.497 203.698 427.075C197.966 430.48 200.171 434.848 203.698 436.194H240.439C246.361 431.732 242.495 428.132 239.715 427.463Z" fill="#98244E"/>
</g>
<defs>
<filter id="filter0_d_255_55" x="196.178" y="427.075" width="51.3696" height="17.1196" filterUnits="userSpaceOnUse" color-interpolation-filters="sRGB">
<feFlood flood-opacity="0" result="BackgroundImageFix"/>
<feColorMatrix in="SourceAlpha" type="matrix" values="0 0 0 0 0 0 0 0 0 0 0 0 0 0 0 0 0 0 127 0" result="hardAlpha"/>
<feOffset dy="4"/>
<feGaussianBlur stdDeviation="2"/>
<feComposite in2="hardAlpha" operator="out"/>
<feColorMatrix type="matrix" values="0 0 0 0 0 0 0 0 0 0 0 0 0 0 0 0 0 0 0.25 0"/>
<feBlend mode="normal" in2="BackgroundImageFix" result="effect1_dropShadow_255_55"/>
<feBlend mode="normal" in="SourceGraphic" in2="effect1_dropShadow_255_55" result="shape"/>
</filter>
<linearGradient id="paint0_linear_255_55" x1="407.656" y1="376.17" x2="407.746" y2="493.149" gradientUnits="userSpaceOnUse">
<stop stop-color="#2793A4"/>
<stop offset="0.463542" stop-color="#3ABAAB" stop-opacity="0.955208"/>
<stop offset="0.963542" stop-color="#8BEFB3"/>
</linearGradient>
<linearGradient id="paint1_linear_255_55" x1="469.796" y1="499.829" x2="469.99" y2="515.711" gradientUnits="userSpaceOnUse">
<stop stop-color="#B32B5B"/>
<stop offset="1" stop-color="#DF3C75" stop-opacity="0.88"/>
</linearGradient>
<linearGradient id="paint2_linear_255_55" x1="222.441" y1="436.001" x2="222.5" y2="474.071" gradientUnits="userSpaceOnUse">
<stop offset="0.326042" stop-color="#943C5B"/>
<stop offset="1" stop-color="#AB677F" stop-opacity="0.71"/>
</linearGradient>
</defs>
</svg>
