<svg width="51" height="48" viewBox="0 0 51 48" fill="none" xmlns="http://www.w3.org/2000/svg">
<path d="M48.6691 10.8666C50.3326 12.7049 51.0996 14.8986 50.99 17.5393V38.0955C50.9502 40.7768 50.0736 42.9807 48.3504 44.7072C46.6371 46.4338 44.4557 47.3377 41.826 47.4189H9.16605C6.53139 47.3377 4.36389 46.4236 2.66355 44.6564C0.964418 42.8893 0.0763705 40.5635 0 37.6893V17.5393C0.0763705 14.8986 0.964418 12.7049 2.66355 10.8666C4.36389 9.20605 6.53139 8.29402 9.16605 8.21582H12.0926L9.56748 5.59449C8.99473 5.01254 8.70785 4.27418 8.70785 3.38145C8.70785 2.4877 8.99473 1.75035 9.56748 1.16769C10.1402 0.585227 10.8674 0.293945 11.7439 0.293945C12.6205 0.293945 13.3477 0.585227 13.9254 1.16769L21.2268 8.21582H29.9924L37.4133 1.16769C38.0209 0.585227 38.768 0.293945 39.6445 0.293945C40.5211 0.293945 41.2482 0.585227 41.826 1.16769C42.3937 1.75035 42.6826 2.4877 42.6826 3.38145C42.6826 4.27418 42.3937 5.01254 41.826 5.59449L39.3059 8.21582H42.2244C44.8541 8.29402 47.0057 9.20605 48.6691 10.8666ZM44.8043 17.9455C44.7645 16.9705 44.4357 16.1783 43.7385 15.5588C43.2205 14.9393 42.3439 14.6041 41.4773 14.5635H9.56748C8.61223 14.6041 7.8293 14.9393 7.21869 15.5588C6.60709 16.1783 6.28236 16.9705 6.24451 17.9455V37.6893C6.24451 38.6236 6.56924 39.4158 7.21869 40.076C7.86814 40.7361 8.65107 41.0713 9.56748 41.0713H41.4773C42.3937 41.0713 43.1707 40.7361 43.7982 40.076C44.4258 39.4158 44.7645 38.6236 44.8043 37.6893V17.9455ZM18.4775 22.2822C19.1051 22.9221 19.4438 23.7143 19.4836 24.6385V28.0205C19.4438 28.9549 19.115 29.7369 18.5074 30.3768C17.8898 31.0166 17.1129 31.3416 16.1566 31.3416C15.2004 31.3416 14.4135 31.0166 13.8059 30.3768C13.1982 29.7369 12.8695 28.9549 12.8297 28.0205V24.6385C12.8695 23.7143 13.2082 22.9221 13.8357 22.2822C14.4633 21.6424 15.1506 21.3072 16.1566 21.2666C17.073 21.3072 17.85 21.6424 18.4775 22.2822ZM37.5527 22.2822C38.1803 22.9221 38.5189 23.7143 38.5588 24.6385V28.0205C38.5189 28.9549 38.1902 29.7369 37.5826 30.3768C36.975 31.0166 36.1881 31.3416 35.2318 31.3416C34.2756 31.3416 33.4986 31.0166 32.8811 30.3768C32.1838 29.7369 31.9447 28.9549 31.9148 28.0205V24.6385C31.9447 23.7143 32.2834 22.9221 32.9109 22.2822C33.5385 21.6424 34.3154 21.3072 35.2318 21.2666C36.1482 21.3072 36.9252 21.6424 37.5527 22.2822Z" fill="#C2B8B8"/>
</svg>
