<svg viewBox="0 0 51 40" fill="none" xmlns="http://www.w3.org/2000/svg">
<path d="M17.85 20C23.4839 20 28.05 15.5227 28.05 10C28.05 4.47734 23.4839 0 17.85 0C12.2161 0 7.65 4.47734 7.65 10C7.65 15.5227 12.2161 20 17.85 20ZM21.8902 23.75H13.8098C6.18136 23.75 0 29.8125 0 37.2891C0 38.7891 1.23675 40 2.76197 40H32.9348C34.4648 40 35.7 38.7891 35.7 37.2891C35.7 29.8125 29.5163 23.75 21.8902 23.75ZM38.1783 25H32.2934C35.955 27.9453 38.25 32.3516 38.25 37.2891C38.25 38.2891 37.9472 39.2109 37.4531 40H48.45C49.8605 40 51 38.875 51 37.4297C51 30.5938 45.2944 25 38.1783 25ZM34.425 20C39.3577 20 43.35 16.0859 43.35 11.25C43.35 6.41406 39.3577 2.5 34.425 2.5C32.424 2.5 30.5968 3.16836 29.1083 4.25859C30.0263 5.98672 30.6 7.92187 30.6 10C30.6 12.775 29.6493 15.3234 28.0827 17.3992C29.6995 19 31.9387 20 34.425 20Z" fill="#C2B8B8"/>
</svg>
