<svg viewBox="0 0 50 53" fill="none" xmlns="http://www.w3.org/2000/svg">
<path d="M6.25 51.3438C6.25 52.2547 5.54199 53 4.6875 53H1.5625C0.708008 53 0 52.2547 0 51.3438V3.3125C0 1.4751 1.3916 0 3.125 0C4.8584 0 6.25 1.4751 6.25 3.3125V51.3438ZM46.5137 0C45.8921 0 45.2432 0.139746 44.625 0.438182C40.1631 2.59752 36.8555 3.33041 34.0977 3.33041C28.2422 3.33041 24.8389 0.0324004 18.0918 0.0313652C15.7129 0.031624 12.8516 0.503811 9.375 1.63037V37.9126C12.5 36.8791 15.2217 36.453 17.6611 36.453C24.8516 36.453 29.8584 39.7428 37.0557 39.7428C40.1719 39.7428 43.6982 39.1247 47.9053 37.3526C49.2285 36.8412 50 35.6508 50 34.3775V3.18104C50 1.14902 48.3691 0 46.5137 0Z" fill="#C2B8B8"/>
</svg>
