<svg  viewBox="0 0 47 57" fill="none" xmlns="http://www.w3.org/2000/svg">
<path d="M5.875 46.8214C5.875 47.9411 6.53227 48.8571 7.34375 48.8571H44.0625C45.6873 48.8571 47 50.6766 47 52.9286C47 55.1806 45.6873 57 44.0625 57H7.34375C3.28816 57 0 52.4451 0 46.8214V4.07143C0 1.82324 1.31545 0 2.9375 0C4.55955 0 5.875 1.82324 5.875 4.07143V46.8214ZM31.4496 31.3754C30.3021 32.9659 28.4479 32.9659 27.3004 31.3754L22.0312 24.085L13.8246 35.4469C12.6771 37.0373 10.8229 37.0373 9.67539 35.4469C8.52609 33.8565 8.52609 31.2864 9.67539 29.696L19.9566 15.446C21.1041 13.8556 22.9584 13.8556 24.1059 15.446L29.375 22.7364L39.0504 9.33884C40.1978 7.74589 42.0522 7.74589 43.1996 9.33884C44.3471 10.9292 44.3471 13.4993 43.1996 15.0897L31.4496 31.3754Z" fill="#C2B8B8"/>
</svg>
