<svg viewBox="0 0 47 54" fill="none" xmlns="http://www.w3.org/2000/svg">
<path fill-rule="evenodd" clip-rule="evenodd" d="M23.5 42.0818L47 53.5587V7.65124C47 5.622 46.0096 3.67588 44.2468 2.241C42.484 0.806111 40.093 0 37.6 0H9.4C6.90697 0 4.51604 0.806111 2.7532 2.241C0.990354 3.67588 0 5.622 0 7.65124V53.5587L23.5 42.0818ZM4.7 46.8026L23.5 37.6211L42.3 46.8026V7.65124C42.3 6.63662 41.8048 5.66356 40.9234 4.94612C40.042 4.22868 38.8465 3.82562 37.6 3.82562H9.4C8.15348 3.82562 6.95802 4.22868 6.0766 4.94612C5.19518 5.66356 4.7 6.63662 4.7 7.65124V46.8026Z" fill="#C2B8B8"/>
</svg>
