<svg width="41" height="34" viewBox="0 0 41 34" fill="none" xmlns="http://www.w3.org/2000/svg">
<path d="M5.125 2.75V1.5625C5.125 0.906406 5.69836 0.375 6.40625 0.375H11.5312C12.2359 0.375 12.8125 0.906406 12.8125 1.5625V2.75H15.375L19.4189 0.876719C20.1316 0.546445 20.9164 0.375 21.7092 0.375H35.875C38.7018 0.375 41 2.50137 41 5.125V28.875C41 31.4949 38.7018 33.625 35.875 33.625H5.125C2.29424 33.625 0 31.4949 0 28.875V7.5C0 4.87637 2.29424 2.75 5.125 2.75ZM17.6652 6.99531C16.9525 7.3293 16.1678 7.5 15.375 7.5H5.125V12.25H14.318C16.0797 11.1293 18.2018 10.4688 20.5 10.4688C22.7982 10.4688 24.9203 11.1293 26.682 12.25H35.875V5.125H21.7092L17.6652 6.99531ZM20.5 14.0312C16.6082 14.0312 13.4531 16.9555 13.4531 20.5625C13.4531 24.1695 16.6082 27.0938 20.5 27.0938C24.3918 27.0938 27.5469 24.1695 27.5469 20.5625C27.5469 16.9555 24.3918 14.0312 20.5 14.0312Z" fill="#98AEAE"/>
</svg>
