<svg width="36" height="35" viewBox="0 0 36 35" fill="none" xmlns="http://www.w3.org/2000/svg">
<path d="M0 17.5C0 7.83398 8.05781 0 18 0C27.9422 0 36 7.83398 36 17.5C36 27.166 27.9422 35 18 35C8.05781 35 0 27.166 0 17.5ZM18.0211 22.6816C14.6883 22.6816 11.5383 22.21 8.75391 21.3828C7.88906 21.123 7.04531 21.8545 7.39687 22.6611C9.14766 26.7012 13.2469 29.5312 18.0211 29.5312C22.7953 29.5312 26.8875 26.7012 28.6453 22.6611C28.9969 21.8545 28.1531 21.123 27.2883 21.3828C24.4969 22.21 21.3539 22.6816 18.0211 22.6816ZM14.0133 8.8252C12.7617 8.50391 11.475 9.22168 11.1375 10.4385L10.8352 11.5391L9.63984 11.2451C8.45156 10.917 7.16484 11.6416 6.83016 12.8584C6.49547 14.0684 7.23516 15.3193 8.48672 15.6475L13.0641 16.8369C13.6687 16.9941 14.2805 16.6523 14.4422 16.0645L15.6727 11.5596C16.0031 10.4043 15.2648 9.15332 14.0133 8.8252ZM24.8625 10.4385C24.525 9.22168 23.2383 8.50391 21.9867 8.8252C20.7352 9.15332 19.9969 10.4043 20.3273 11.5596L21.5578 16.0645C21.7195 16.6523 22.3313 16.9941 22.9359 16.8369L27.5133 15.6475C28.7648 15.3193 29.5031 14.0684 29.1727 12.8584C28.8352 11.6416 27.5484 10.917 26.2969 11.2451L25.1648 11.5391L24.8625 10.4385Z" fill="#98AEAE"/>
</svg>
