<svg width="40" height="35" viewBox="0 0 40 35" fill="none" xmlns="http://www.w3.org/2000/svg">
<path d="M21.9875 25.1084V22.0938C20.5313 21.2393 18.9 20.7812 17.1688 20.7812H10.8313C4.84813 20.7812 0 26.0894 0 32.6348C3.125e-05 33.9404 0.97 35 2.16625 35H25.835C26.5763 35 27.1988 34.5668 27.5894 33.9452L23.7363 29.7363C22.6063 28.499 21.9875 26.8584 21.9875 25.1084ZM14 17.5C18.4188 17.5 22 13.5823 22 8.75C22 3.91768 18.4188 0 14 0C9.58125 0 6 3.91768 6 8.75C6 13.5823 9.58125 17.5 14 17.5ZM39.4125 24.9375L33.7688 18.7852C33.0188 17.9648 32 17.5 30.9375 17.5H25.9856C24.8763 17.5 23.9863 18.4741 23.9863 19.6875L23.9872 25.1016C23.9872 26.2637 24.4026 27.3677 25.1528 28.188L30.7972 34.3588C31.5784 35.2133 32.8434 35.2133 33.6247 34.3588L39.4053 28.0355C40.1938 27.1797 40.1938 25.792 39.4125 24.9375ZM27.9875 23.5088C27.1594 23.5088 26.4875 22.7828 26.4875 21.8682C26.4875 20.9624 27.1594 20.2275 27.9875 20.2275C28.8238 20.2275 29.4875 20.9624 29.4875 21.8682C29.4875 22.7739 28.8188 23.5088 27.9875 23.5088Z" fill="#98AEAE"/>
</svg>
