<svg  viewBox="0 0 63 59" fill="none" xmlns="http://www.w3.org/2000/svg">
<path d="M62.9807 29.4424C62.9807 31.5166 61.34 33.1414 59.4806 33.1414H55.9804L56.057 51.5904C56.057 51.9131 56.0351 52.2127 56.0023 52.5238V54.3906C56.0023 56.9373 54.0444 59 51.6271 59H49.8771C49.7567 59 49.6364 58.8963 49.5161 58.9885C49.363 58.8963 49.2099 59 49.0567 59H42.8768C40.4595 59 38.5016 56.9373 38.5016 54.3906V44.25C38.5016 42.2104 36.9375 40.5625 35.0015 40.5625H28.0012C26.0651 40.5625 24.501 42.2104 24.501 44.25V54.3906C24.501 56.9373 22.5431 59 20.1258 59H14.0115C13.8474 59 13.6834 58.9885 13.5193 58.9769C13.3881 58.9885 13.2568 59 13.1255 59H11.3755C8.95928 59 7.00029 56.9373 7.00029 54.3906V41.4844C7.00029 41.3807 7.00357 41.2654 7.01013 41.1617V33.1414H3.50561C1.5335 33.1414 0 31.5166 0 29.4424C0 28.4053 0.328576 27.4834 1.09489 26.6768L29.1387 0.923719C29.9044 0.115465 30.7794 0 31.5451 0C32.3107 0 33.1857 0.23093 33.853 0.808254L61.7776 26.6768C62.6526 27.4834 63.1011 28.4053 62.9807 29.4424Z" fill="white"/>
</svg>
