<svg  viewBox="0 0 67 49" fill="none" xmlns="http://www.w3.org/2000/svg">
<path d="M60.7188 0C64.1865 0 67 2.74221 67 6.125C67 8.05182 66.0709 9.8638 64.4875 11.025L36.0125 31.85C34.5207 32.9346 32.4793 32.9346 30.9875 31.85L2.5125 11.025C0.930803 9.8638 0 8.05182 0 6.125C0 2.74221 2.81217 0 6.28125 0H60.7188ZM28.475 35.1167C31.4586 37.2987 35.5414 37.2987 38.525 35.1167L67 14.2917V40.8333C67 45.3378 63.2443 49 58.625 49H8.375C3.74912 49 0 45.3378 0 40.8333V14.2917L28.475 35.1167Z" fill="white"/>
</svg>
