<svg viewBox="0 0 59 45" fill="none" xmlns="http://www.w3.org/2000/svg">
<path d="M20.65 22.5C27.1677 22.5 32.45 17.463 32.45 11.25C32.45 5.03701 27.1677 0 20.65 0C14.1323 0 8.85 5.03701 8.85 11.25C8.85 17.463 14.1323 22.5 20.65 22.5ZM25.3239 26.7188H15.9761C7.15098 26.7188 0 33.5391 0 41.9502C0 43.6377 1.43075 45 3.19522 45H38.1011C39.8711 45 41.3 43.6377 41.3 41.9502C41.3 33.5391 34.1463 26.7188 25.3239 26.7188ZM44.167 28.125H37.359C41.595 31.4385 44.25 36.3955 44.25 41.9502C44.25 43.0752 43.8997 44.1123 43.3281 45H56.05C57.6817 45 59 43.7344 59 42.1084C59 34.418 52.3994 28.125 44.167 28.125ZM39.825 22.5C45.5314 22.5 50.15 18.0967 50.15 12.6562C50.15 7.21582 45.5314 2.8125 39.825 2.8125C37.5102 2.8125 35.3963 3.5644 33.6743 4.79092C34.7363 6.73506 35.4 8.91211 35.4 11.25C35.4 14.3719 34.3002 17.2389 32.4878 19.5741C34.3583 21.375 36.9487 22.5 39.825 22.5Z" fill="white"/>
</svg>
